<?xml version="1.0" encoding="utf-8"?>
<!-- Generator: Adobe Illustrator 19.2.1, SVG Export Plug-In . SVG Version: 6.00 Build 0)  -->
<svg version="1.1" xmlns="http://www.w3.org/2000/svg" xmlns:xlink="http://www.w3.org/1999/xlink" x="0px" y="0px" width="144px"
	 height="144px" viewBox="0 0 144 144" enable-background="new 0 0 144 144" xml:space="preserve">
<g id="Layer_1">
	<path fill="#ED1C24" d="M31.2,49.9l2.4,7.1l7.4,0.2l-5.9,4.5l2.2,7.1l-6.1-4.3l-6.1,4.3l2.2-7.1l-5.9-4.5l7.4-0.2L31.2,49.9z
		 M50.2,33l2.4,7.1l7.4,0.2l-5.9,4.5l2.2,7.1l-6.1-4.3l-6.1,4.3l2.2-7.1l-5.9-4.5l7.4-0.2L50.2,33z M112.8,49.9l-2.4,7.1l-7.4,0.2
		l5.9,4.5l-2.2,7.1l6.1-4.3l6.1,4.3l-2.2-7.1l5.9-4.5l-7.4-0.2L112.8,49.9z M93.8,33l-2.4,7.1l-7.4,0.2l5.9,4.5l-2.2,7.1l6.1-4.3
		l6.1,4.3l-2.2-7.1l5.9-4.5l-7.4-0.2L93.8,33z M73.2,27l2.4,7.1l7.4,0.2l-5.9,4.5l2.2,7.1l-6.1-4.3l-6.1,4.3l2.2-7.1l-5.9-4.5
		l7.4-0.2L73.2,27z"/>
	<path fill="#4C4C4C" d="M83.9,78.7l-5.6-8c0,0,0,0,0,0c0.4-0.9,0.6-1.8,0.6-2.8c0-3.8-3.1-6.9-6.9-6.9c-3.8,0-6.9,3.1-6.9,6.9
		c0,1,0.2,2,0.6,2.8c0,0,0,0,0,0l-5.6,8c-0.1,0.2-0.1,0.4,0,0.6c0.1,0.2,0.3,0.3,0.6,0.3l3.6-0.6l0.6,3.6c0,0.2,0.2,0.4,0.4,0.4
		c0,0,0.1,0,0.1,0c0.2,0,0.4-0.1,0.5-0.2l5.6-8c0.2,0,0.3,0,0.5,0c0.2,0,0.3,0,0.5,0l5.6,8c0.1,0.2,0.3,0.2,0.5,0.2c0,0,0.1,0,0.1,0
		c0.2,0,0.4-0.2,0.4-0.4l0.6-3.6l3.6,0.6c0.2,0,0.4-0.1,0.6-0.3C84.1,79.1,84.1,78.9,83.9,78.7z M65.7,81l-0.5-2.8
		c-0.1-0.3-0.3-0.5-0.7-0.5l-2.8,0.5l4.5-6.4c0.9,1.4,2.3,2.4,4,2.8L65.7,81z M66.2,67.9c0-3.2,2.6-5.8,5.8-5.8
		c3.2,0,5.8,2.6,5.8,5.8c0,3.2-2.6,5.8-5.8,5.8C68.8,73.7,66.2,71.1,66.2,67.9z M79.4,77.7c-0.3-0.1-0.6,0.1-0.7,0.5L78.3,81
		l-4.5-6.4c-0.1,0-0.2,0-0.3,0.1c1.8-0.4,3.3-1.4,4.3-2.9c0,0,0,0,0,0l4.5,6.4L79.4,77.7z"/>
	<path fill="#4C4C4C" d="M122.1,112l5.8-22H14.7l5.8,22H122.1z M102.6,94.8h7.4l2,2v3l-2,2l2.4,5.4h-3.4l-1.8-4.8h-1.6v3.2l0.4,1.6
		h-3.4l0.4-1.6v-9.8L102.6,94.8z M91,95h7l0.8,2.4L97.4,97h-3.6v2.6h1.8l1.2-0.4v2.8l-1.2-0.4h-1.8v3.6h3.8l1.6-0.8l-1,2.8h-7.4
		l0.4-1V95.8L91,95z M77.1,94.8h3.2l3.6,7V96l-0.4-1.2h3L86.2,96v11.2H84L79.7,99v6.8l0.4,1.4h-3l0.4-1.4v-10L77.1,94.8z M69.5,94.8
		h3.4L72.5,96v9.8l0.2,1.4h-3.2l0.4-1.4V96L69.5,94.8z M58.2,94.8h3.4L61.3,96v9h3l2-0.8l-1,3h-7l0.4-1.4V96L58.2,94.8z M44.6,94.8
		h3.2l3.6,7V96L51,94.8h3L53.6,96v11.2h-2.2L47.2,99v6.8l0.4,1.4h-3l0.4-1.4v-10L44.6,94.8z M31.5,97.2l2-2.2h4.8l2.2,2.2v7.8
		l-2.2,2.2h-4.6l-2.4-2.2L31.5,97.2z M34.1,103.7v-5.2c0-0.8,0.6-1.4,1.4-1.4h0.8c0.8,0,1.4,0.6,1.4,1.4v5.2c0,0.8-0.6,1.4-1.4,1.4
		h-0.8C34.8,105.1,34.1,104.5,34.1,103.7z M108.1,100.2h-2.4v-3.4h2.4l1.2,1v1.4L108.1,100.2z M35.3,113l1.3,4H9.5l4-11.3L3.5,95
		h11.4l4.6,18H35.3z M130.5,105.7l4,11.3h-27.1l1.4-4h14.7l4.6-18h12.4L130.5,105.7z"/>
</g>
<g id="Layer_2">
</g>
<g id="Layer_3">
</g>
<g id="Layer_4">
</g>
</svg>
