<?xml version="1.0" encoding="utf-8"?>
<!-- Generator: Adobe Illustrator 19.2.1, SVG Export Plug-In . SVG Version: 6.00 Build 0)  -->
<svg version="1.1" xmlns="http://www.w3.org/2000/svg" xmlns:xlink="http://www.w3.org/1999/xlink" x="0px" y="0px" width="144px"
	 height="144px" viewBox="0 0 144 144" enable-background="new 0 0 144 144" xml:space="preserve">
<g id="Layer_1">
</g>
<g id="Layer_2">
	<g>
		<g>
			<g>
				<path fill="#4C4C4C" d="M57.8,87.7c-4.3,0-7.9,3.5-7.9,7.9c0,4.3,3.5,7.9,7.9,7.9c4.3,0,7.9-3.5,7.9-7.9
					C65.7,91.3,62.2,87.7,57.8,87.7z M57.8,98.5c-1.6,0-2.9-1.3-2.9-2.9c0-1.6,1.3-2.9,2.9-2.9c1.6,0,2.9,1.3,2.9,2.9
					C60.7,97.2,59.4,98.5,57.8,98.5z M97.1,87.7c-4.3,0-7.9,3.5-7.9,7.9c0,4.3,3.5,7.9,7.9,7.9c4.3,0,7.9-3.5,7.9-7.9
					C105,91.3,101.5,87.7,97.1,87.7z M97.1,98.5c-1.6,0-2.9-1.3-2.9-2.9c0-1.6,1.3-2.9,2.9-2.9c1.6,0,2.9,1.3,2.9,2.9
					C100,97.2,98.7,98.5,97.1,98.5z M69,85.7h0.4c0.2,0,0.3-0.3,0.3-0.6v-3.7c0-0.2-0.5-0.8-0.7-0.8H45.7c-0.2,0-0.7,0.5-0.7,0.8
					v3.7c0,0.2,0.5,0.7,0.7,0.7h1.5c0,0-3,7.5-3,11.2h4.5c-0.1-0.4,0-1.1,0-1.5c0-5,4.1-9.1,9.1-9.1s8.9,4.1,8.9,9.1
					c0,0.4,0.1,1.1,0,1.5h21v-3H70.5L69,85.7z M92.6,74.9c1.2,0,1.7-1.9,1.7-4.1s-0.4-4.1-1.7-4.1c-2.1,0-3.7,1.9-3.7,4.1
					S90.5,74.9,92.6,74.9z M66.5,79.5c2.1,0.4,10.3,1.7,10.3,1.7s2.9,7.5,3.7,9.5c0.8,2.1,3.7,2.5,5,1.7c1.2-0.8,1.7-2.9,1.2-4.1
					c-0.4-1.2-3.7-9.5-4.1-10.8c-0.4-1.2-2.1-2.5-4.6-2.5l-6.6-1.2c0,0,0.4-2.8,0.8-5.7c-1.9-1.6-3.4-3.7-4.8-5.7
					c-0.4-0.5-0.5-1.2-0.4-1.9c0.1-0.7,0.5-1.2,1-1.6c0.4-0.3,0.9-0.5,1.4-0.5c0.8,0,1.6,0.4,2,1c0.6,0.8,1.1,1.6,1.7,2.3
					c0,0,0,0,0,0c0.4-2.5,0-5-3.3-5.8c-2-0.5-4.1,0.8-5.4,2.9c-1.2,2.1-2.5,7.5-2.5,9.5c0,2.1,0,6.2,0.4,7.5
					C62.8,77,64.5,79,66.5,79.5z M83.8,71.2c-0.1,0-0.7,0.1-1.7,0.1c-0.6,0-1.4,0-2.2-0.1l-0.2,0.1c0,1.2,0.8,1.7,1.2,1.7l3.3-1.2
					l6.1,17.9c1.7-1.8,4.1-3,6.8-3c2.5,0,4.8,1,6.4,2.7c0.2,0.2,0.4,0.2,0.6,0l0.6-0.5c0.2-0.2,0.2-0.4,0.1-0.6
					c-1.9-2.7-5-4.4-8.5-4.4c-0.3,0-0.5,0-0.8,0l0,0c0,0-0.4-2.9-2.5-5c-2.1-2.1-5.4-3.7-5.4-3.7l-1.3-5c-0.1-0.3-0.2-0.5-0.4-0.6
					C85.7,70.2,84.8,71,83.8,71.2z M71.1,59.6c-0.7-0.9-2-1.1-2.9-0.5c-0.9,0.7-1.1,2-0.5,2.9c2.2,3.1,4.5,6.3,8.4,7.8
					c2.3,0.9,4.5,1,6,1c0.9,0,1.6-0.1,1.6-0.1c1.1-0.1,1.9-1.2,1.8-2.3c-0.1-1.1-1.2-1.9-2.3-1.8c0,0-2.9,0.3-5.6-0.7
					C74.9,64.9,73,62.3,71.1,59.6z M77.8,47.5c-1.4,0.3-1.4,1.1-1.3,1.9c0,0.1,0,0.2,0,0.2c0,0.1,0.1,0.2,0.1,0.4
					c0.2,0.7,0.6,2.1-0.2,3.2c-0.4,0.6-1.4,0.9-2.8,0.9h0c-0.9,0-1.8-0.1-2.9-0.4c1,1,2.5,1.7,4.1,1.7c3.2,0,5.8-2.6,5.8-5.8
					c0-0.9-0.2-1.7-0.5-2.4C79.2,47.3,78.4,47.4,77.8,47.5z M70.3,53.2c3.1,0.8,5.2,0.5,5.8-0.3c0.8-1.2,0-2.9,0-3.3
					c0-0.4-0.4-2.1,1.7-2.5c0.8-0.2,1.7-0.3,2.5-0.3c0.2,0,0.4-0.2,0.4-0.4c-0.5-3.3-3.3-5.9-6.8-5.9c-3.8,0-6.8,3.1-6.8,6.8
					C66.9,49.8,68.3,52,70.3,53.2z"/>
			</g>
		</g>
		<path fill="#ED1C24" d="M40.5,58.5h18c0.8,0,1.5,0.7,1.5,1.5v18c0,0.8-0.7,1.5-1.5,1.5h-18c-0.8,0-1.5-0.7-1.5-1.5V60
			C39,59.2,39.7,58.5,40.5,58.5z"/>
	</g>
</g>
<g id="Layer_3">
</g>
<g id="Layer_4">
</g>
</svg>
