<?xml version="1.0" encoding="utf-8"?>
<!-- Generator: Adobe Illustrator 19.2.1, SVG Export Plug-In . SVG Version: 6.00 Build 0)  -->
<svg version="1.1" xmlns="http://www.w3.org/2000/svg" xmlns:xlink="http://www.w3.org/1999/xlink" x="0px" y="0px" width="144px"
	 height="144px" viewBox="0 0 144 144" enable-background="new 0 0 144 144" xml:space="preserve">
<g id="Layer_1">
</g>
<g id="Layer_2">
</g>
<g id="Layer_3">
</g>
<g id="Layer_4">
	<g>
		<g>
			<g>
				<path fill="#4C4C4C" d="M84.2,92.8c-1.4-2.2-6.3-3.6-11.1-5.6c-4.8-2-5.9-2.7-5.9-2.7l0-4.6c0,0,1.8-1.4,2.4-5.7
					c1.1,0.3,2.3-1.7,2.4-2.7c0.1-1-0.2-3.8-1.5-3.5c0.3-2.1,0.5-4,0.4-5c-0.4-3.7-4-7.5-9.6-7.5c-5.6,0-9.2,3.9-9.6,7.5
					c-0.1,1,0.1,2.9,0.4,5c-1.4-0.3-1.6,2.5-1.5,3.5c0.1,1,1.2,3,2.4,2.7c0.6,4.3,2.4,5.7,2.4,5.7l0,4.6c0,0-1.1,0.7-5.9,2.7
					c-4.8,2-9.6,3.4-11.1,5.6c-0.7,1.1-0.9,4.4-0.9,7.2c0,2.5,1.6,5.7,3.8,6.8c3.7,1.9,10.2,4.2,20.2,4.2c10,0,16.5-2.3,20.2-4.2
					c2.2-1.1,3.8-4.4,3.8-6.8C85.1,97.2,84.9,93.9,84.2,92.8z"/>
			</g>
		</g>
		<path fill="#ED1C24" d="M88.1,33c-12.6,0-18.7,4.3-18.7,10.5c0,5.9,5.2,10.2,16.5,10.5c-1.2,3.2-4.2,4.6-6.8,5.3
			c6.9-0.1,10.2-3.4,11.3-5.3c11.3-0.3,16.5-4.6,16.5-10.5C106.9,37.3,100.8,33,88.1,33z M90.3,50.9l-1.8,0l0,0L86,50.9
			c-5-0.1-13.5-1.2-13.5-7.4c0-6.7,10.9-7.4,15.6-7.4c4.7,0,15.6,0.8,15.6,7.4C103.7,49.7,95.3,50.8,90.3,50.9z"/>
	</g>
</g>
</svg>
