<?xml version="1.0" encoding="utf-8"?>
<!-- Generator: Adobe Illustrator 19.2.1, SVG Export Plug-In . SVG Version: 6.00 Build 0)  -->
<svg version="1.1" xmlns="http://www.w3.org/2000/svg" xmlns:xlink="http://www.w3.org/1999/xlink" x="0px" y="0px" width="144px"
	 height="144px" viewBox="0 0 144 144" enable-background="new 0 0 144 144" xml:space="preserve">
<g id="Layer_1">
</g>
<g id="Layer_2">
</g>
<g id="Layer_3">
	<g>
		<g>
			<g>
				<path fill="#4C4C4C" d="M103.6,86.9c-1.9-5.1-4.7-8.5-10.1-10.6c-0.1-4.1,2.2-7.2,2.2-7.2s-5.7,0-9.5,4c-2.7-1.9-6-3.4-9.5-4.4
					l-1.6,4.7c-3.1-0.9-6.5-1.3-10-1.3c-3.9,0-7.6,0.6-11,1.7c-0.8-0.9-1.9-2.4-3.3-4.1c-4.6,1.7-8.5,4.3-11.3,7.4
					c-2-0.8-3.6-2.3-1-5c-4.9,0-3.9,4.9-3,5.9c0.4,0.4,1.1,1,1.9,1.6c-1.9,2.8-2.9,5.9-2.9,9.2c0,3.9,1.5,7.6,4.1,10.8
					c0.4,6.6,1.5,14.2,3.8,15.8h9.9v-6.9c3.9,1.3,8.2,2,12.8,2c2.6,0,5.1-0.1,7.5-0.4c1.6,3,2.9,4.9,3.3,5.3h9.9
					c0,0-0.8-3.2-1.7-7.4c12.6-3.4,22-9.5,25.4-14.2v-6.9H103.6z M94.7,87.9c-1.6,0-3-1.3-3-3c0-1.6,1.3-3,3-3c1.6,0,3,1.3,3,3
					C97.6,86.6,96.3,87.9,94.7,87.9z"/>
			</g>
		</g>
		<g>
			<path fill="#ED1C24" d="M63.9,48.3c-7.1,0-12.9,5.8-12.9,12.9c0,4.3,2.1,8,5.3,10.4c2.8-0.6,5.7-1,8.6-1c2.4,0,4.8,0.2,7.1,0.6
				c2.9-2.4,4.8-6,4.8-10.1C76.7,54.1,71,48.3,63.9,48.3z M65,66.8h-2.2v-9H59v-1.5h0.7c1.9,0,3-1.1,3.4-3.1l1.8,0.1V66.8z"/>
			<ellipse fill="#ED1C24" cx="67.2" cy="33.8" rx="5.3" ry="5.3"/>
			<circle fill="#ED1C24" cx="87.5" cy="52.5" r="6.7"/>
		</g>
	</g>
</g>
<g id="Layer_4">
</g>
</svg>
